# xmcd
#
# Track frame offsets:
#	150
#	21537
#	42245
#	59720
#	83807
#	105037
#	117837
#	137255
#	166310
#	183570
#
# Disc length: 2736
#
# Revision: 4
# Processed by: cddbd v1.5.1PL0 Copyright (c) Steve Scherf et al.
# Submitted via: ExactAudioCopy v0.95a5
# Normalized: r3:DSETVAR1
#
DISCID=7d0aae0a
DTITLE=Various Artist - A Celebration of Blues- The Great Guitarists, Vol. 2
DYEAR=1996
DGENRE=Blues
TTITLE0=Albert Collins - Don't Lose Your Cool
TTITLE1=Earl King - It Hurts To Love Someone
TTITLE2=Kenny Neal - Why Should I Stay
TTITLE3=Lonnie Brooks - Wife for Tonight
TTITLE4=Otis Rush - Little Red Rooster
TTITLE5=Paul James - Phonograph Blues
TTITLE6=Duke Robillard - The High Cost of Loving
TTITLE7=Luther Allison - Bad Love
TTITLE8=Johnny Copeland - Nobody But You
TTITLE9=George Thorogood and the Destroyers - Baby Please Set a Date
EXTD=LABEL =St-Clair Entertainment Group Inc.\nID =CBL25182\nUPC =777966-251820\nCOPYRIGHT =1996
EXTT0=Albert Collins
EXTT1=Earl King
EXTT2=Kenny Neal
EXTT3=Lonnie Brooks
EXTT4=Otis Rush
EXTT5=Paul James
EXTT6=Duke Robillard
EXTT7=Luther Allison
EXTT8=Johnny Copeland
EXTT9=George Thorogood and The Destroyers
PLAYORDER=
